<mxfile host="Electron" modified="2023-04-24T07:22:06.354Z" agent="Mozilla/5.0 (Windows NT 10.0; Win64; x64) AppleWebKit/537.36 (KHTML, like Gecko) draw.io/21.2.1 Chrome/112.0.5615.87 Electron/24.1.2 Safari/537.36" etag="O7ziOko7VwIbnT_IO5dR" version="21.2.1" type="device">
  <diagram name="第 1 页" id="dt_3C3Dq6Kr7bBqGKfM3">
    <mxGraphModel dx="989" dy="577" grid="1" gridSize="10" guides="1" tooltips="1" connect="1" arrows="1" fold="1" page="1" pageScale="1" pageWidth="827" pageHeight="1169" background="#ffffff" math="0" shadow="0">
      <root>
        <mxCell id="0" />
        <mxCell id="1" parent="0" />
        <mxCell id="-C4VnkqParYU2Tn2tmBC-1" value="" style="ellipse;html=1;shape=startState;fillColor=#000000;strokeColor=#ff0000;" vertex="1" parent="1">
          <mxGeometry x="384" y="70" width="30" height="30" as="geometry" />
        </mxCell>
        <mxCell id="-C4VnkqParYU2Tn2tmBC-2" value="" style="edgeStyle=orthogonalEdgeStyle;html=1;verticalAlign=bottom;endArrow=open;endSize=8;strokeColor=#ff0000;rounded=0;" edge="1" source="-C4VnkqParYU2Tn2tmBC-1" parent="1">
          <mxGeometry relative="1" as="geometry">
            <mxPoint x="399" y="130" as="targetPoint" />
          </mxGeometry>
        </mxCell>
        <mxCell id="-C4VnkqParYU2Tn2tmBC-3" value="身份验证" style="rounded=1;whiteSpace=wrap;html=1;arcSize=40;fontColor=#000000;fillColor=#ffffc0;strokeColor=#ff0000;" vertex="1" parent="1">
          <mxGeometry x="339" y="130" width="120" height="40" as="geometry" />
        </mxCell>
        <mxCell id="-C4VnkqParYU2Tn2tmBC-4" value="" style="edgeStyle=orthogonalEdgeStyle;html=1;verticalAlign=bottom;endArrow=open;endSize=8;strokeColor=#ff0000;rounded=0;" edge="1" source="-C4VnkqParYU2Tn2tmBC-3" parent="1">
          <mxGeometry relative="1" as="geometry">
            <mxPoint x="399" y="200" as="targetPoint" />
          </mxGeometry>
        </mxCell>
        <mxCell id="-C4VnkqParYU2Tn2tmBC-5" value="拥有查看权限" style="rhombus;whiteSpace=wrap;html=1;fontColor=#000000;fillColor=#ffffc0;strokeColor=#ff0000;" vertex="1" parent="1">
          <mxGeometry x="347" y="200" width="100" height="60" as="geometry" />
        </mxCell>
        <mxCell id="-C4VnkqParYU2Tn2tmBC-6" value="no" style="edgeStyle=orthogonalEdgeStyle;html=1;align=left;verticalAlign=bottom;endArrow=open;endSize=8;strokeColor=#ff0000;rounded=0;entryX=1;entryY=0.5;entryDx=0;entryDy=0;" edge="1" source="-C4VnkqParYU2Tn2tmBC-5" parent="1" target="-C4VnkqParYU2Tn2tmBC-18">
          <mxGeometry x="-1" relative="1" as="geometry">
            <mxPoint x="527" y="230" as="targetPoint" />
            <Array as="points">
              <mxPoint x="550" y="230" />
              <mxPoint x="550" y="545" />
            </Array>
          </mxGeometry>
        </mxCell>
        <mxCell id="-C4VnkqParYU2Tn2tmBC-7" value="yes" style="edgeStyle=orthogonalEdgeStyle;html=1;align=left;verticalAlign=top;endArrow=open;endSize=8;strokeColor=#ff0000;rounded=0;" edge="1" source="-C4VnkqParYU2Tn2tmBC-5" parent="1">
          <mxGeometry x="-1" relative="1" as="geometry">
            <mxPoint x="397" y="300" as="targetPoint" />
          </mxGeometry>
        </mxCell>
        <mxCell id="-C4VnkqParYU2Tn2tmBC-8" value="选择生成位置" style="rounded=1;whiteSpace=wrap;html=1;arcSize=40;fontColor=#000000;fillColor=#ffffc0;strokeColor=#ff0000;" vertex="1" parent="1">
          <mxGeometry x="337" y="300" width="120" height="40" as="geometry" />
        </mxCell>
        <mxCell id="-C4VnkqParYU2Tn2tmBC-9" value="" style="edgeStyle=orthogonalEdgeStyle;html=1;verticalAlign=bottom;endArrow=open;endSize=8;strokeColor=#ff0000;rounded=0;" edge="1" source="-C4VnkqParYU2Tn2tmBC-8" parent="1">
          <mxGeometry relative="1" as="geometry">
            <mxPoint x="397" y="380" as="targetPoint" />
          </mxGeometry>
        </mxCell>
        <mxCell id="-C4VnkqParYU2Tn2tmBC-10" value="" style="shape=line;html=1;strokeWidth=6;strokeColor=#ff0000;" vertex="1" parent="1">
          <mxGeometry x="295" y="380" width="200" height="10" as="geometry" />
        </mxCell>
        <mxCell id="-C4VnkqParYU2Tn2tmBC-12" value="生成在线连接" style="rounded=1;whiteSpace=wrap;html=1;arcSize=40;fontColor=#000000;fillColor=#ffffc0;strokeColor=#ff0000;" vertex="1" parent="1">
          <mxGeometry x="263" y="430" width="120" height="40" as="geometry" />
        </mxCell>
        <mxCell id="-C4VnkqParYU2Tn2tmBC-14" value="保存本地" style="rounded=1;whiteSpace=wrap;html=1;arcSize=40;fontColor=#000000;fillColor=#ffffc0;strokeColor=#ff0000;" vertex="1" parent="1">
          <mxGeometry x="407" y="430" width="120" height="40" as="geometry" />
        </mxCell>
        <mxCell id="-C4VnkqParYU2Tn2tmBC-16" value="" style="endArrow=open;html=1;exitX=0.25;exitY=0.5;exitDx=0;exitDy=0;exitPerimeter=0;entryX=0.5;entryY=0;entryDx=0;entryDy=0;strokeColor=#FF0000;rounded=0;endFill=0;" edge="1" parent="1" source="-C4VnkqParYU2Tn2tmBC-10" target="-C4VnkqParYU2Tn2tmBC-12">
          <mxGeometry width="50" height="50" relative="1" as="geometry">
            <mxPoint x="365" y="500" as="sourcePoint" />
            <mxPoint x="415" y="450" as="targetPoint" />
          </mxGeometry>
        </mxCell>
        <mxCell id="-C4VnkqParYU2Tn2tmBC-17" value="" style="endArrow=open;html=1;rounded=0;exitX=0.75;exitY=0.5;exitDx=0;exitDy=0;exitPerimeter=0;entryX=0.5;entryY=0;entryDx=0;entryDy=0;strokeColor=#FF0000;endFill=0;" edge="1" parent="1" source="-C4VnkqParYU2Tn2tmBC-10" target="-C4VnkqParYU2Tn2tmBC-14">
          <mxGeometry width="50" height="50" relative="1" as="geometry">
            <mxPoint x="365" y="500" as="sourcePoint" />
            <mxPoint x="415" y="450" as="targetPoint" />
          </mxGeometry>
        </mxCell>
        <mxCell id="-C4VnkqParYU2Tn2tmBC-18" value="" style="ellipse;html=1;shape=endState;fillColor=#000000;strokeColor=#ff0000;" vertex="1" parent="1">
          <mxGeometry x="377" y="530" width="30" height="30" as="geometry" />
        </mxCell>
        <mxCell id="-C4VnkqParYU2Tn2tmBC-19" value="" style="endArrow=open;html=1;rounded=0;endFill=0;strokeColor=#FF0000;exitX=0.5;exitY=1;exitDx=0;exitDy=0;entryX=0;entryY=0.5;entryDx=0;entryDy=0;" edge="1" parent="1" source="-C4VnkqParYU2Tn2tmBC-12" target="-C4VnkqParYU2Tn2tmBC-18">
          <mxGeometry width="50" height="50" relative="1" as="geometry">
            <mxPoint x="420" y="450" as="sourcePoint" />
            <mxPoint x="470" y="400" as="targetPoint" />
          </mxGeometry>
        </mxCell>
        <mxCell id="-C4VnkqParYU2Tn2tmBC-20" value="" style="endArrow=open;html=1;rounded=0;endFill=0;strokeColor=#FF0000;exitX=0.5;exitY=1;exitDx=0;exitDy=0;entryX=1;entryY=0.5;entryDx=0;entryDy=0;" edge="1" parent="1" source="-C4VnkqParYU2Tn2tmBC-14" target="-C4VnkqParYU2Tn2tmBC-18">
          <mxGeometry width="50" height="50" relative="1" as="geometry">
            <mxPoint x="333" y="480" as="sourcePoint" />
            <mxPoint x="387" y="555" as="targetPoint" />
          </mxGeometry>
        </mxCell>
      </root>
    </mxGraphModel>
  </diagram>
</mxfile>
